<svg id="Capa_1" enable-background="new 0 0 512 512" height="512" viewBox="0 0 512 512" width="512" xmlns="http://www.w3.org/2000/svg"><g><path d="m448.79 21.27c-10.75 8.34-22.73 14.77-35.43 19.13-12.7 4.34-26.12 6.61-39.73 6.61-51.58 0-100.04 32.29-117.63 80.78-17.59-48.49-66.05-80.78-117.63-80.78-13.61 0-27.03-2.27-39.73-6.61-12.7-4.36-24.68-10.79-35.43-19.13l-27.4-21.27c.004 70.564 36.91 136.015 97.31 172.51l69.11 41.435v65.195c22.105 7.221 27.508 20.427 53.77 20.29 26.262.137 31.665-13.069 53.77-20.29v-65.195l69.11-41.435c60.4-36.495 97.306-101.946 97.31-172.51z"/><path d="m466.91 315.07c-27.954 19.258-69.09 19.078-96.74-.001-9.36-5.629-16.75-10.069-32.91-10.069-34.546-.108-36.378 24.472-81.27 24.43-44.524.152-46.832-24.549-81.27-24.43-16.15.001-23.54 4.441-32.9 10.071-27.61 19.106-68.952 19.21-96.73-.001-5.86-3.519-10.95-6.579-17.9-8.379v85.07c30.559 3.74 34.62 19.119 66.26 19.07 36.233-.115 37.51-20.247 81.27-20 43.954-.21 44.882 19.85 81.27 20 36.334-.139 37.395-20.224 81.27-20 43.844-.233 45.002 19.875 81.28 20 31.663.054 35.71-15.344 66.27-19.071v-85.07c-6.95 1.8-12.04 4.86-17.9 8.38z"/><path d="m418.54 440.83c-44.028.195-44.799-19.833-81.28-20.001-36.262.124-37.471 20.243-81.27 20-43.917.217-44.905-19.855-81.27-20-16.82.001-24.41 3.731-34.01 8.461-26.694 15.355-67.695 15.418-94.51-.001-6.17-3.039-11.51-5.669-19.01-7.159v89.87h457.62v-89.87c-7.5 1.49-12.84 4.12-19.01 7.16-10.99 5.41-23.45 11.54-47.26 11.54z"/></g></svg>